<svg xmlns="http://www.w3.org/2000/svg" width="800" height="800" fill="none" viewBox="0 0 24 24"><path fill="#24292f" fill-rule="evenodd" d="M14.97 3.34a13 13 0 0 0-5.94 0 7.63 7.63 0 0 0-5.69 5.69 13 13 0 0 0 0 5.94 7.63 7.63 0 0 0 5.69 5.69 13 13 0 0 0 5.94 0 7.63 7.63 0 0 0 5.69-5.69 13 13 0 0 0 0-5.94 7.63 7.63 0 0 0-5.69-5.69Zm-7.24 5.9c.2-.24.56-.28.8-.07l2 1.65c.73.62.73 1.74 0 2.36l-2 1.65a.57.57 0 1 1-.73-.88l2-1.66a.38.38 0 0 0 0-.58l-2-1.66a.57.57 0 0 1-.07-.81Zm4.75 4.58a.57.57 0 0 0 0 1.15h3.35a.57.57 0 0 0 0-1.15h-3.35Z" clip-rule="evenodd"/></svg>