<svg xmlns="http://www.w3.org/2000/svg" width="800" height="800" fill="none" viewBox="0 0 24 24"><g fill="#fff"><path d="M12 19a7 7 0 1 0 0-14 7 7 0 0 0 0 14ZM12 22.96c-.55 0-1-.41-1-.96v-.08a1 1 0 0 1 1-1 1 1 0 0 1 1 1c0 .55-.45 1.04-1 1.04Zm7.14-2.82c-.26 0-.51-.1-.71-.29l-.13-.13a1 1 0 1 1 1.41-1.41l.13.13a1 1 0 0 1-.7 1.7Zm-14.28 0a1 1 0 0 1-.71-1.7l.13-.13a1 1 0 1 1 1.41 1.41l-.13.13a1 1 0 0 1-.7.29ZM22 13h-.08a1 1 0 0 1-1-1 1 1 0 0 1 1-1c.55 0 1.04.45 1.04 1s-.41 1-.96 1ZM2.08 13H2a1 1 0 0 1-1-1 1 1 0 0 1 1-1c.55 0 1.04.45 1.04 1s-.41 1-.96 1Zm16.93-7.01a1 1 0 0 1-.71-1.7l.13-.13a1 1 0 1 1 1.41 1.41l-.13.13a.98.98 0 0 1-.7.29Zm-14.02 0c-.26 0-.51-.1-.71-.29l-.13-.14a1 1 0 1 1 1.41-1.41l.13.13a1 1 0 0 1 0 1.41c-.19.2-.45.3-.7.3ZM12 3.04c-.55 0-1-.41-1-.96V2a1 1 0 0 1 1-1 1 1 0 0 1 1 1c0 .55-.45 1.04-1 1.04Z"/></g></svg>